<?xml version="1.0" encoding="UTF-8"?>
<svg version="1.1" xmlns="http://www.w3.org/2000/svg" width="518" height="518">
<path d="M0 0 C0.96873047 -0.01611328 1.93746094 -0.03222656 2.93554688 -0.04882812 C18.0305263 -0.05889816 31.47444847 5.46766475 42.34375 15.94140625 C43.1171875 16.72386719 43.890625 17.50632813 44.6875 18.3125 C45.3784375 18.98152344 46.069375 19.65054688 46.78125 20.33984375 C54.58611133 28.39224732 60.4426767 38.02923145 66.65966797 47.30859375 C69.99063642 52.24288653 73.40215187 57.12038931 76.8125 62 C81.63696107 68.91550495 86.43685644 75.8460712 91.1875 82.8125 C96.70096405 90.89661667 102.28175353 98.93262052 107.87573242 106.96118164 C113.94255434 115.67072851 119.95902759 124.41393817 125.95996094 133.16894531 C131.83643774 141.73973974 137.7487694 150.28469977 143.6875 158.8125 C150.48376634 168.57169023 157.23636339 178.35961382 163.95996094 188.16894531 C169.83643774 196.73973974 175.7487694 205.28469977 181.6875 213.8125 C187.61903606 222.32996913 193.52401539 230.86467411 199.39306641 239.42529297 C201.19466165 242.05191146 202.99931604 244.67642135 204.80419922 247.30078125 C205.71636871 248.62733907 206.62816122 249.95415621 207.53955078 251.28125 C209.96052951 254.80584605 212.38810697 258.32568681 214.82421875 261.83984375 C215.3346875 262.57783203 215.84515625 263.31582031 216.37109375 264.07617188 C217.35748727 265.50195887 218.34570726 266.92648436 219.3359375 268.34960938 C222.6875 273.2000378 222.6875 273.2000378 222.6875 274.3125 C132.9275 274.3125 43.1675 274.3125 -49.3125 274.3125 C-44.81546811 266.44269418 -44.81546811 266.44269418 -42.31640625 263.10546875 C-41.76460693 262.36353271 -41.21280762 261.62159668 -40.64428711 260.85717773 C-40.06042236 260.07930908 -39.47655762 259.30144043 -38.875 258.5 C-37.6164598 256.80783265 -36.35866446 255.11511109 -35.1015625 253.421875 C-34.46766602 252.56916016 -33.83376953 251.71644531 -33.18066406 250.83789062 C-30.33964403 246.99738995 -27.54182292 243.12634531 -24.75 239.25 C-23.96012695 238.15425659 -23.96012695 238.15425659 -23.15429688 237.03637695 C-21.53967919 234.79557741 -19.92604663 232.55407088 -18.3125 230.3125 C-16.00116505 227.10332536 -13.68836948 223.89520821 -11.375 220.6875 C-10.85542725 219.96554443 -10.33585449 219.24358887 -9.80053711 218.49975586 C-9.30046143 217.8063208 -8.80038574 217.11288574 -8.28515625 216.3984375 C-7.85468994 215.8007959 -7.42422363 215.2031543 -6.98071289 214.58740234 C-6.43020264 213.83668457 -5.87969238 213.0859668 -5.3125 212.3125 C-4.99116592 211.65014847 -4.66983185 210.98779694 -4.33876038 210.30537415 C-2.88391846 207.7246817 -1.66773978 206.13220973 0.6875 204.3125 C5.87079706 203.16268297 10.99007408 203.35570596 16.26171875 203.49609375 C17.79292998 203.50849092 19.32417229 203.51747691 20.85542297 203.52320862 C24.87479739 203.54800555 28.89187021 203.62167516 32.91040039 203.70489502 C36.19434672 203.76499498 39.47815304 203.79140483 42.76253033 203.81587124 C49.54479065 203.86649007 56.32697561 203.93925388 63.1081543 204.07202148 C64.90968208 204.10488503 64.90968208 204.10488503 66.74760437 204.13841248 C69.6875 204.3125 69.6875 204.3125 72.6875 205.3125 C66.48791956 196.19875455 60.27424768 187.10002472 53.875 178.125 C48.25673501 170.22900895 42.89128358 162.17191728 37.53320312 154.09790039 C33.45362597 147.95276994 29.3393832 141.83731116 25.13623047 135.77612305 C22.03173751 131.29102347 18.97402817 126.77602068 15.9296875 122.25 C14.63508978 120.32893145 13.34021531 118.40804964 12.0453186 116.48718262 C11.18840562 115.21391632 10.33305318 113.93959825 9.4793396 112.66418457 C8.27278047 110.86193662 7.06073389 109.06348953 5.84765625 107.265625 C5.14261963 106.21536133 4.43758301 105.16509766 3.71118164 104.08300781 C1.86786401 101.55942615 -0.03510321 99.44322566 -2.3125 97.3125 C-2.66054688 98.34697266 -2.66054688 98.34697266 -3.015625 99.40234375 C-4.58796222 102.93063057 -6.73833654 105.82108056 -9.0625 108.875 C-13.55231206 114.88172176 -17.90654678 120.9677495 -22.1875 127.125 C-26.68713655 133.58904158 -31.24052017 140.00697496 -35.875 146.375 C-40.29349973 152.45160764 -44.59220383 158.59668264 -48.8125 164.8125 C-53.59496627 171.85599086 -58.50087105 178.79434696 -63.50561523 185.68139648 C-68.68290803 192.8069062 -73.76218652 199.99903082 -78.82861328 207.20361328 C-81.31898786 210.74291167 -83.81609792 214.27745184 -86.3125 217.8125 C-87.31253195 219.22914412 -88.31253196 220.64581078 -89.3125 222.0625 C-91.3125 224.89583333 -93.3125 227.72916667 -95.3125 230.5625 C-95.80766113 231.2639917 -96.30282227 231.9654834 -96.81298828 232.68823242 C-97.81130954 234.10249378 -98.8096818 235.51671914 -99.80810547 236.9309082 C-102.33421322 240.50908007 -104.85938502 244.08790608 -107.3828125 247.66796875 C-107.89457031 248.39371094 -108.40632813 249.11945313 -108.93359375 249.8671875 C-109.88185609 251.21199591 -110.82981486 252.55701847 -111.77734375 253.90234375 C-112.68918686 255.1952164 -113.62120915 256.47406597 -114.57171631 257.73878479 C-116.44347157 260.3786001 -116.44347157 260.3786001 -118.00714111 263.76524353 C-120.53450894 268.56827849 -123.2165954 273.23406585 -128.56739426 275.09797478 C-135.37785922 276.31540946 -142.28228925 275.91722887 -149.1640625 275.6796875 C-151.39173132 275.65354597 -153.61948114 275.63363154 -155.84725952 275.61965942 C-161.68558534 275.56643066 -167.51896398 275.42913405 -173.35534668 275.27380371 C-179.32085235 275.13007863 -185.28716495 275.06654044 -191.25390625 274.99609375 C-202.94226734 274.84635179 -214.62697094 274.60771035 -226.3125 274.3125 C-225.09363638 271.17481163 -223.95018855 268.54686017 -221.87890625 265.88671875 C-221.16166382 264.95206787 -221.16166382 264.95206787 -220.42993164 263.99853516 C-219.9168042 263.33901855 -219.40367676 262.67950195 -218.875 262 C-214.72601949 256.5724421 -210.70936639 251.09186518 -206.875 245.4375 C-202.99213542 239.71819287 -199.00742719 234.08773279 -194.9375 228.5 C-190.41056838 222.28009142 -186.00682303 215.99075707 -181.6875 209.625 C-177.37935846 203.27869462 -172.96912846 197.03317749 -168.40356445 190.86987305 C-163.43136382 184.14997764 -158.63254483 177.31042626 -153.82861328 170.46972656 C-151.32906693 166.91320618 -148.82044239 163.36310227 -146.3125 159.8125 C-143.32091805 155.57653277 -140.33071166 151.33963382 -137.34765625 147.09765625 C-132.25727639 139.86409079 -127.13039023 132.66039253 -121.9375 125.5 C-115.51673727 116.64277853 -109.24820932 107.68269403 -102.98828125 98.71142578 C-95.85060665 88.49365325 -88.62532852 78.34345843 -81.30834961 68.25341797 C-77.25193939 62.64611594 -73.27087857 56.98931665 -69.3125 51.3125 C-67.55889461 48.80564691 -65.80422055 46.29954735 -64.04882812 43.79394531 C-62.89421012 42.14384163 -61.74185258 40.49215385 -60.59179688 38.83886719 C-48.40838386 21.36105483 -35.34887943 5.9447691 -13.64770508 0.72045898 C-9.11947063 -0.07062097 -4.5847324 -0.01507144 0 0 Z " fill="#000000" transform="translate(261.3125,121.6875)"/>
<path d="M0 0 C170.61 0 341.22 0 517 0 C517 170.61 517 341.22 517 517 C346.39 517 175.78 517 0 517 C0 346.39 0 175.78 0 0 Z M4 4 C4 171.97 4 339.94 4 513 C171.97 513 339.94 513 513 513 C513 345.03 513 177.06 513 4 C345.03 4 177.06 4 4 4 Z " fill="#FFFFFF" transform="translate(1,0)"/>
</svg>
